<mxfile host="app.diagrams.net" modified="2023-08-31T17:54:10.222Z" agent="Mozilla/5.0 (Windows NT 10.0; Win64; x64) AppleWebKit/537.36 (KHTML, like Gecko) Chrome/116.0.0.0 Safari/537.36" etag="K28OJYvXAESiC6Z8rOjK" version="21.7.1" type="google">
  <diagram id="C5RBs43oDa-KdzZeNtuy" name="Page-1">
    <mxGraphModel grid="1" page="1" gridSize="10" guides="1" tooltips="1" connect="1" arrows="1" fold="1" pageScale="1" pageWidth="827" pageHeight="1169" math="0" shadow="0">
      <root>
        <mxCell id="WIyWlLk6GJQsqaUBKTNV-0" />
        <mxCell id="WIyWlLk6GJQsqaUBKTNV-1" parent="WIyWlLk6GJQsqaUBKTNV-0" />
        <mxCell id="WIyWlLk6GJQsqaUBKTNV-2" value="" style="rounded=0;html=1;jettySize=auto;orthogonalLoop=1;fontSize=11;endArrow=block;endFill=0;endSize=8;strokeWidth=1;shadow=0;labelBackgroundColor=none;edgeStyle=orthogonalEdgeStyle;entryX=0.5;entryY=0;entryDx=0;entryDy=0;entryPerimeter=0;" edge="1" parent="WIyWlLk6GJQsqaUBKTNV-1" target="1KMDGh2kZiL_jEPMxR_a-4">
          <mxGeometry relative="1" as="geometry">
            <mxPoint x="220" y="120" as="sourcePoint" />
            <mxPoint x="220" y="170" as="targetPoint" />
          </mxGeometry>
        </mxCell>
        <mxCell id="1KMDGh2kZiL_jEPMxR_a-0" value="Início" style="strokeWidth=2;html=1;shape=mxgraph.flowchart.terminator;whiteSpace=wrap;" vertex="1" parent="WIyWlLk6GJQsqaUBKTNV-1">
          <mxGeometry x="170" y="80" width="100" height="40" as="geometry" />
        </mxCell>
        <mxCell id="1KMDGh2kZiL_jEPMxR_a-1" value="Fim" style="strokeWidth=2;html=1;shape=mxgraph.flowchart.terminator;whiteSpace=wrap;" vertex="1" parent="WIyWlLk6GJQsqaUBKTNV-1">
          <mxGeometry x="175" y="480" width="100" height="40" as="geometry" />
        </mxCell>
        <mxCell id="1KMDGh2kZiL_jEPMxR_a-7" value="" style="edgeStyle=orthogonalEdgeStyle;rounded=0;orthogonalLoop=1;jettySize=auto;html=1;" edge="1" parent="WIyWlLk6GJQsqaUBKTNV-1" source="1KMDGh2kZiL_jEPMxR_a-4" target="1KMDGh2kZiL_jEPMxR_a-6">
          <mxGeometry relative="1" as="geometry" />
        </mxCell>
        <mxCell id="1KMDGh2kZiL_jEPMxR_a-4" value="NumeroA" style="verticalLabelPosition=middle;verticalAlign=middle;html=1;shape=card;whiteSpace=wrap;size=20;arcSize=12;labelPosition=center;align=center;" vertex="1" parent="WIyWlLk6GJQsqaUBKTNV-1">
          <mxGeometry x="170" y="180" width="100" height="60" as="geometry" />
        </mxCell>
        <mxCell id="1KMDGh2kZiL_jEPMxR_a-9" value="" style="edgeStyle=orthogonalEdgeStyle;rounded=0;orthogonalLoop=1;jettySize=auto;html=1;" edge="1" parent="WIyWlLk6GJQsqaUBKTNV-1" source="1KMDGh2kZiL_jEPMxR_a-6">
          <mxGeometry relative="1" as="geometry">
            <mxPoint x="220" y="370" as="targetPoint" />
          </mxGeometry>
        </mxCell>
        <mxCell id="1KMDGh2kZiL_jEPMxR_a-6" value="numeroB = numeroA -1&amp;nbsp;&lt;br&gt;numeroC = numeroC + 1" style="whiteSpace=wrap;html=1;arcSize=12;" vertex="1" parent="WIyWlLk6GJQsqaUBKTNV-1">
          <mxGeometry x="145" y="270" width="150" height="60" as="geometry" />
        </mxCell>
        <mxCell id="1KMDGh2kZiL_jEPMxR_a-16" value="" style="edgeStyle=orthogonalEdgeStyle;rounded=0;orthogonalLoop=1;jettySize=auto;html=1;" edge="1" parent="WIyWlLk6GJQsqaUBKTNV-1" source="1KMDGh2kZiL_jEPMxR_a-15" target="1KMDGh2kZiL_jEPMxR_a-1">
          <mxGeometry relative="1" as="geometry" />
        </mxCell>
        <mxCell id="1KMDGh2kZiL_jEPMxR_a-15" value="&quot;O número informado foi&quot;, numero A, &quot;o antecessor é &quot;, numeroB, &quot;e o sucessor é&quot;, numeroC&lt;span id=&quot;docs-internal-guid-64db43b1-7fff-2bfd-3bd5-40ab8eec0d09&quot;&gt;&lt;/span&gt;" style="shape=display;whiteSpace=wrap;html=1;" vertex="1" parent="WIyWlLk6GJQsqaUBKTNV-1">
          <mxGeometry x="120" y="370" width="210" height="80" as="geometry" />
        </mxCell>
      </root>
    </mxGraphModel>
  </diagram>
</mxfile>
